<svg width="26" height="26" viewBox="0 0 26 26" fill="none" xmlns="http://www.w3.org/2000/svg">
<g clip-path="url(#clip0)">
<path d="M12.9913 26C12.9057 26 12.8191 25.9794 12.7411 25.9382L0.291409 19.4382C0.112659 19.3451 -7.62939e-06 19.1598 -7.62939e-06 18.9583V6.7708C-7.62939e-06 6.58339 0.0974924 6.40897 0.256742 6.31039C0.415992 6.2118 0.616409 6.20314 0.783242 6.28655L13.2329 12.5157C13.416 12.6078 13.5319 12.7952 13.5319 13V25.4583C13.5319 25.6479 13.4333 25.8234 13.2708 25.922C13.1863 25.974 13.0888 26 12.9913 26ZM1.08333 18.6301L12.4497 24.5646V13.3347L1.08333 7.64722V18.6301Z" fill="#1C2F50"/>
<path d="M13.0087 26C12.9112 26 12.8137 25.974 12.7281 25.922C12.5667 25.8234 12.467 25.6479 12.467 25.4583V13C12.467 12.7952 12.5829 12.6078 12.766 12.5157L25.2157 6.28657C25.3814 6.20207 25.5829 6.21073 25.7422 6.3104C25.9025 6.40898 26 6.5834 26 6.77082V18.9583C26 19.1598 25.8873 19.3451 25.7086 19.4382L13.2589 25.9383C13.1809 25.9794 13.0942 26 13.0087 26ZM13.5503 13.3347V24.5646L24.9167 18.6301V7.64723L13.5503 13.3347ZM25.4583 18.9583H25.4692H25.4583Z" fill="#1C2F50"/>
<mask id="path-3-inside-1" fill="white">
<path d="M0.541354 7.31263C0.342021 7.31263 0.151354 7.20321 0.0560211 7.01363C-0.0783122 6.74605 0.0311044 6.42105 0.298688 6.28671L12.7657 0.0575464C12.9184 -0.0182869 13.0983 -0.0182869 13.2499 0.0575464L25.6996 6.28671C25.9672 6.42105 26.0755 6.74605 25.9423 7.01363C25.8079 7.28121 25.484 7.38846 25.2154 7.2563L13.0084 1.14738L0.784021 7.25521C0.706021 7.29421 0.623688 7.31263 0.541354 7.31263Z"/>
</mask>
<path d="M0.541354 7.31263C0.342021 7.31263 0.151354 7.20321 0.0560211 7.01363C-0.0783122 6.74605 0.0311044 6.42105 0.298688 6.28671L12.7657 0.0575464C12.9184 -0.0182869 13.0983 -0.0182869 13.2499 0.0575464L25.6996 6.28671C25.9672 6.42105 26.0755 6.74605 25.9423 7.01363C25.8079 7.28121 25.484 7.38846 25.2154 7.2563L13.0084 1.14738L0.784021 7.25521C0.706021 7.29421 0.623688 7.31263 0.541354 7.31263Z" fill="#1C2F50"/>
<path d="M0.0560211 7.01363L-7.0936 10.6029L-7.09121 10.6077L0.0560211 7.01363ZM0.298688 6.28671L-3.27703 -0.869699L-3.28382 -0.866309L-3.29059 -0.862906L0.298688 6.28671ZM12.7657 0.0575464L9.20832 -7.10801L9.19914 -7.10345L9.18997 -7.09887L12.7657 0.0575464ZM13.2499 0.0575464L16.8296 -7.09688L16.8276 -7.09787L13.2499 0.0575464ZM25.6996 6.28671L29.2889 -0.862912L29.2793 -0.867708L25.6996 6.28671ZM25.9423 7.01363L33.0919 10.6029L33.0977 10.5913L33.1035 10.5797L25.9423 7.01363ZM25.2154 7.2563L21.6351 14.4104L21.6595 14.4227L21.684 14.4347L25.2154 7.2563ZM13.0084 1.14738L16.5886 -6.00677L13.0112 -7.79705L9.43268 -6.00905L13.0084 1.14738ZM0.784021 7.25521L-2.79166 0.0987807L-2.79369 0.0997956L0.784021 7.25521ZM0.541354 -0.68737C3.25259 -0.68737 5.89017 0.808361 7.20325 3.41959L-7.09121 10.6077C-5.58747 13.5981 -2.56855 15.3126 0.541354 15.3126V-0.68737ZM7.20564 3.42435C9.0729 7.1438 7.53049 11.6077 3.88797 13.4363L-3.29059 -0.862906C-7.46828 1.23439 -9.22952 6.34829 -7.0936 10.6029L7.20564 3.42435ZM3.87441 13.4431L16.3414 7.21396L9.18997 -7.09887L-3.27703 -0.869699L3.87441 13.4431ZM16.3231 7.2231C14.2427 8.25588 11.7807 8.26722 9.67223 7.21296L16.8276 -7.09787C14.4158 -8.3038 11.5941 -8.29245 9.20832 -7.10801L16.3231 7.2231ZM9.67024 7.21197L22.1199 13.4411L29.2793 -0.867708L16.8296 -7.09687L9.67024 7.21197ZM22.1103 13.4363C18.4425 11.595 16.9472 7.13008 18.7811 3.44752L33.1035 10.5797C35.2038 6.36201 33.4919 1.2471 29.2889 -0.862906L22.1103 13.4363ZM18.7927 3.42435C20.6477 -0.270829 25.1104 -1.71093 28.7467 0.0778726L21.684 14.4347C25.8576 16.4879 30.9682 14.8333 33.0919 10.6029L18.7927 3.42435ZM28.7956 0.102149L16.5886 -6.00677L9.42811 8.30153L21.6351 14.4104L28.7956 0.102149ZM9.43268 -6.00905L-2.79166 0.098781L4.3597 14.4116L16.584 8.30381L9.43268 -6.00905ZM-2.79369 0.0997956C-1.73557 -0.429261 -0.589709 -0.68737 0.541354 -0.68737V15.3126C1.83708 15.3126 3.14762 15.0177 4.36173 14.4106L-2.79369 0.0997956Z" fill="#1C2F50" mask="url(#path-3-inside-1)"/>
<path d="M19.5 16.25C19.201 16.25 18.9584 16.0073 18.9584 15.7083V10.0848L6.80771 4.0051C6.54013 3.87185 6.43179 3.54576 6.56613 3.27818C6.70046 3.0106 7.02546 2.90335 7.29304 3.03551L19.7427 9.26468C19.9258 9.35785 20.0417 9.54526 20.0417 9.75001V15.7083C20.0417 16.0073 19.799 16.25 19.5 16.25Z" fill="#1C2F50"/>
</g>
<defs>
<clipPath id="clip0">
<rect width="26" height="26" fill="white"/>
</clipPath>
</defs>
</svg>
