<svg width="24" height="28" viewBox="0 0 24 28" fill="none" xmlns="http://www.w3.org/2000/svg">
<path d="M23.8125 24.7188C23.8125 25.3228 23.3228 25.8125 22.7188 25.8125H21.625V26.9062C21.625 27.5103 21.1353 28 20.5312 28C19.9272 28 19.4375 27.5103 19.4375 26.9062V25.8125H18.3438C17.7397 25.8125 17.25 25.3228 17.25 24.7188C17.25 24.1147 17.7397 23.625 18.3438 23.625H19.4375V22.5312C19.4375 21.9272 19.9272 21.4375 20.5312 21.4375C21.1353 21.4375 21.625 21.9272 21.625 22.5312V23.625H22.7188C23.3228 23.625 23.8125 24.1147 23.8125 24.7188ZM23.8125 7.65625V18.1562C23.8125 18.7603 23.3228 19.25 22.7188 19.25C22.1147 19.25 21.625 18.7603 21.625 18.1562V8.75H19.4375V12.0312C19.4375 12.6353 18.9478 13.125 18.3438 13.125C17.7397 13.125 17.25 12.6353 17.25 12.0312V8.75H6.75V12.0312C6.75 12.6353 6.26033 13.125 5.65625 13.125C5.05217 13.125 4.5625 12.6353 4.5625 12.0312V8.75H2.375V25.8125H13.9688C14.5728 25.8125 15.0625 26.3022 15.0625 26.9062C15.0625 27.5103 14.5728 28 13.9688 28H1.28125C0.677172 28 0.1875 27.5103 0.1875 26.9062V7.65625C0.1875 7.05217 0.677172 6.5625 1.28125 6.5625H4.61423C5.04873 2.87235 8.19501 0 12 0C15.805 0 18.9513 2.87235 19.3858 6.5625H22.7188C23.3228 6.5625 23.8125 7.05217 23.8125 7.65625ZM17.1767 6.5625C16.7589 4.0827 14.5967 2.1875 12 2.1875C9.40327 2.1875 7.24115 4.0827 6.82334 6.5625H17.1767Z" fill="#1C2F50"/>
</svg>
