<svg width="28" height="28" viewBox="0 0 28 28" fill="none" xmlns="http://www.w3.org/2000/svg">
<path d="M23.9416 3.66795C21.5761 1.30248 18.431 -0.000132302 15.0858 1.00786e-08C14.5377 1.00786e-08 14.0935 0.444304 14.0935 0.99234C14.0935 1.54038 14.5378 1.98468 15.0858 1.98468C17.9009 1.98455 20.5476 3.08075 22.5382 5.07139C24.529 7.06202 25.6252 9.70879 25.625 12.524C25.625 13.072 26.0692 13.5163 26.6174 13.5163C27.1654 13.5163 27.6097 13.072 27.6097 12.5241C27.6098 9.17862 26.3072 6.03343 23.9416 3.66795Z" fill="#1C2F50"/>
<path d="M19.8595 12.5241C19.8595 13.0721 20.3038 13.5164 20.852 13.5163C21.4 13.5163 21.8442 13.072 21.8442 12.524C21.8439 8.79806 18.8121 5.7664 15.086 5.76587C15.0858 5.76587 15.086 5.76587 15.0858 5.76587C14.5378 5.76587 14.0936 6.21004 14.0935 6.75808C14.0935 7.30611 14.5377 7.75042 15.0857 7.75055C17.7178 7.75095 19.8593 9.89228 19.8595 12.5241Z" fill="#1C2F50"/>
<path d="M17.6637 17.5837C16.1511 17.5054 15.3805 18.6303 15.0109 19.1707C14.7015 19.6231 14.8174 20.2406 15.2697 20.55C15.7221 20.8595 16.3396 20.7436 16.6491 20.2912C17.0857 19.6528 17.2835 19.5524 17.5519 19.5651C18.4107 19.6661 21.7933 22.1448 22.132 22.9199C22.2169 23.1481 22.2137 23.3719 22.1226 23.644C21.7675 24.698 21.1796 25.4387 20.4222 25.7859C19.7027 26.1157 18.8206 26.0858 17.8718 25.6998C14.3289 24.2557 11.2336 22.2405 8.672 19.7099C8.67095 19.7088 8.66989 19.7079 8.66896 19.7068C6.14365 17.1478 4.13211 14.0564 2.69044 10.5189C2.30422 9.56934 2.27432 8.68709 2.60417 7.96771C2.95136 7.21035 3.69204 6.62249 4.74512 6.26776C5.01821 6.1762 5.24155 6.17329 5.46767 6.25744C6.24553 6.59735 8.72414 9.97978 8.82416 10.829C8.83845 11.1073 8.73723 11.305 8.09936 11.7408C7.64685 12.0499 7.53055 12.6674 7.83976 13.1199C8.14884 13.5724 8.76621 13.6886 9.21885 13.3795C9.75948 13.0104 10.8841 12.2419 10.8061 10.7242C10.7201 9.1388 7.63613 4.94041 6.16257 4.39859C5.50723 4.15435 4.81789 4.15011 4.11293 4.38669C2.52677 4.92083 1.38121 5.87321 0.8001 7.14076C0.236451 8.37047 0.254313 9.79718 0.852364 11.2674C2.39525 15.0531 4.55392 18.3656 7.26831 21.113C7.27492 21.1198 7.28167 21.1264 7.28855 21.1329C10.034 23.8422 13.3426 25.9969 17.1233 27.538C17.8804 27.8459 18.626 28 19.339 28C20.0104 28 20.6531 27.8635 21.2493 27.5901C22.517 27.0091 23.4693 25.8637 24.0038 24.2765C24.2398 23.5728 24.236 22.8838 23.9936 22.2315C23.4499 20.7539 19.2515 17.67 17.6637 17.5837Z" fill="#1C2F50"/>
</svg>
